<svg width="24" height="24" viewBox="0 0 24 24" fill="none" xmlns="http://www.w3.org/2000/svg">
  <!-- Main cloud-like polygon shape with wavy edges -->
  <path d="M6 10C6 10 5 8 6 7C7 6 8 6.5 8.5 6C9 5.5 10 5 11 5.5C12 6 12.5 5 14 5C15.5 5 16 6 17 6C18 6 18.5 5.5 19 6.5C19.5 7.5 20 8 19.5 9C19 10 20 10.5 20 12C20 13.5 19 14 19 15C19 16 19.5 16.5 18.5 17.5C17.5 18.5 17 18 16 18C15 18 14.5 19 13 19C11.5 19 11 18 10 18C9 18 8.5 18.5 7.5 17.5C6.5 16.5 6 16 6 15C6 14 5 13.5 5 12C5 10.5 6 10 6 10Z"
        stroke="currentColor"
        stroke-width="2"
        fill="none"
        stroke-linejoin="round"
        stroke-linecap="round"/>

  <!-- Small cloud bumps for visual effect -->
  <circle cx="9" cy="9" r="1" fill="currentColor" opacity="0.3"/>
  <circle cx="15" cy="9" r="1" fill="currentColor" opacity="0.3"/>
  <circle cx="12" cy="12" r="1" fill="currentColor" opacity="0.3"/>
  <circle cx="9" cy="15" r="1" fill="currentColor" opacity="0.3"/>
  <circle cx="15" cy="15" r="1" fill="currentColor" opacity="0.3"/>
</svg>