<svg width="24" height="24" viewBox="0 0 24 24" fill="none" xmlns="http://www.w3.org/2000/svg">
  <!-- First document (back) -->
  <path d="M2 2C2 1.44772 2.44772 1 3 1H13C13.5523 1 14 1.44772 14 2V18C14 18.5523 13.5523 19 13 19H3C2.44772 19 2 18.5523 2 18V2Z" fill="currentColor" opacity="0.3"/>

  <!-- Second document (front, offset) -->
  <path d="M8 6C8 5.44772 8.44772 5 9 5H19C19.5523 5 20 5.44772 20 6V22C20 22.5523 19.5523 23 19 23H9C8.44772 23 8 22.5523 8 22V6Z" fill="currentColor" opacity="0.5"/>

  <!-- Comparison difference indicators -->
  <rect x="10" y="8" width="8" height="1.5" fill="currentColor"/>
  <rect x="10" y="11" width="5" height="1.5" fill="currentColor" opacity="0.6"/>
  <rect x="10" y="14" width="7" height="1.5" fill="currentColor"/>
  <rect x="10" y="17" width="4" height="1.5" fill="currentColor" opacity="0.6"/>
  <rect x="10" y="20" width="8" height="1.5" fill="currentColor"/>

  <!-- Settings gear badge in top-right corner -->
  <circle cx="20" cy="4" r="4" fill="white"/>
  <circle cx="20" cy="4" r="3.5" fill="currentColor" opacity="0.1"/>
  <path d="M21.4 4.3c.01-.1.02-.2.02-.3s-.01-.2-.02-.3l.6-.47c.06-.04.07-.12.04-.18l-.57-.99c-.04-.06-.11-.08-.18-.06l-.71.28c-.15-.11-.31-.21-.48-.28l-.11-.75c-.01-.07-.07-.12-.14-.12h-1.14c-.07 0-.13.05-.14.12l-.11.75c-.17.07-.33.17-.48.28l-.71-.28c-.07-.02-.14 0-.18.06l-.57.99c-.04.06-.02.14.04.18l.6.47c-.01.1-.02.2-.02.3s.01.2.02.3l-.6.47c-.06.04-.07.12-.04.18l.57.99c.04.06.11.08.18.06l.71-.28c.15.11.31.21.48.28l.11.75c.01.07.07.12.14.12h1.14c.07 0 .13-.05.14-.12l.11-.75c.17-.07.33-.17.48-.28l.71.28c.07.02.14 0 .18-.06l.57-.99c.04-.06.02-.14-.04-.18l-.6-.47zM20 5c-.55 0-1-.45-1-1s.45-1 1-1 1 .45 1 1-.45 1-1 1z" fill="currentColor"/>
</svg>