<svg width="142" height="30" viewBox="0 0 142 30" fill="none" xmlns="http://www.w3.org/2000/svg">
<g id="Nutrient Wordmark">
<path id="Vector" d="M17.2472 1.00275H20.8114V29.0932H16.7164L7.10016 12.2086C6.57807 11.2694 5.49307 9.1665 3.84807 5.89984H3.81016C3.86266 7.1015 3.90932 8.41109 3.94724 9.82859C3.98516 11.2461 4.00557 12.3078 4.00557 13.0107V29.0932H0.441406V1.00275H4.43724L14.0739 17.6919C14.5581 18.529 15.4331 20.1653 16.6989 22.6094L17.4047 23.9598H17.4427C17.3902 22.8894 17.3435 21.6557 17.3056 20.2586C17.2677 18.8615 17.2472 17.7386 17.2472 16.8898V1.00275ZM38.2531 20.2994C38.2531 24.479 36.5293 26.5673 33.0818 26.5673C32.3118 26.5673 31.6381 26.4973 31.0635 26.3603C30.4889 26.2232 29.9464 25.9053 29.4389 25.4094C29.0597 25.0448 28.7856 24.6278 28.6164 24.1669C28.4472 23.7032 28.3452 23.2394 28.3131 22.7757C28.281 22.3119 28.2635 21.6615 28.2635 20.8273V9.03525H24.5418V21.0228C24.5418 21.9619 24.571 22.7786 24.6293 23.4728C24.6877 24.1669 24.8364 24.8523 25.0697 25.5407C25.3031 26.229 25.6647 26.824 26.146 27.3344C26.8635 28.1044 27.7064 28.6732 28.6718 29.0378C29.6372 29.4023 30.7747 29.5861 32.0814 29.5861C33.5193 29.5861 34.7706 29.2857 35.841 28.6848C36.9114 28.084 37.7135 27.2236 38.2502 26.0978V29.0961H41.8552V9.03525H38.2502V20.2994H38.2531ZM52.676 3.45275H49.1118V9.03525H44.9002V12.0511H49.1118V24.1582C49.1118 25.9723 49.6018 27.2819 50.5818 28.0869C51.5618 28.8919 53.1397 29.2915 55.3214 29.2915C55.8697 29.2915 56.4152 29.2623 56.9577 29.204C57.5002 29.1457 57.9464 29.0698 58.2993 28.9794L58.2206 25.6894C57.2143 25.9257 56.3452 26.0423 55.616 26.0423C54.8868 26.0423 54.2743 25.9869 53.8631 25.8761C53.4518 25.7653 53.1514 25.5669 52.9618 25.2782C52.7722 24.9894 52.6789 24.5782 52.6789 24.0444V12.0569H58.3781V9.04109H52.6789V3.45275H52.676ZM68.7293 9.97442C67.4547 10.7328 66.6293 11.6719 66.2502 12.7948V9.03525H62.6452V29.0932H66.2502V19.9057C66.2502 17.8028 66.5622 16.1636 67.1893 14.9882C67.8164 13.8128 68.6652 13.0078 69.7356 12.5703C70.806 12.1328 72.1068 11.914 73.6322 11.914C74.2447 11.914 74.6647 11.9344 74.8864 11.9723L74.9651 8.54525C74.1018 8.54525 73.5535 8.55692 73.3202 8.58317C71.5293 8.75234 70.001 9.21609 68.7264 9.97442H68.7293ZM104.286 15.5978C104.587 16.7848 104.736 18.0215 104.736 19.299C104.736 19.6782 104.73 19.9582 104.715 20.1419H89.496C89.5339 22.3498 90.0239 23.9919 90.966 25.0682C91.9052 26.1444 93.3168 26.684 95.1981 26.684C96.8956 26.684 98.2139 26.3165 99.156 25.5786C100.098 24.8407 100.69 23.7148 100.938 22.1982L104.423 22.4723C103.98 24.8086 102.977 26.579 101.416 27.7807C99.856 28.9823 97.7968 29.5832 95.236 29.5832C92.1531 29.5832 89.7527 28.6032 88.026 26.6461C86.3927 24.8173 85.576 22.2769 85.576 19.0248C85.576 17.5228 85.7889 16.1344 86.2118 14.8628C86.6347 13.5882 87.2676 12.4886 88.1018 11.5611C88.9768 10.5694 90.0152 9.81692 91.2168 9.30942C92.4185 8.799 93.7426 8.54525 95.1922 8.54525C96.811 8.54525 98.3189 8.88942 99.716 9.57484C101.113 10.2603 102.216 11.2432 103.026 12.5236C103.563 13.3869 103.98 14.4107 104.281 15.5978H104.286ZM101.014 17.2223C101.002 16.6478 100.897 16.0236 100.702 15.3528C100.506 14.6819 100.253 14.1161 99.9377 13.6582C99.4272 12.8998 98.7914 12.3486 98.0272 12.0015C97.2631 11.6544 96.3327 11.4823 95.236 11.4823C94.1393 11.4823 93.1797 11.6748 92.3572 12.0598C91.5347 12.4448 90.9193 12.9786 90.5168 13.6553C90.1756 14.2036 89.9335 14.7928 89.7818 15.4169C89.6331 16.044 89.5485 16.6448 89.5368 17.2194H101.017L101.014 17.2223ZM124.671 12.6111C124.443 11.9111 124.093 11.3073 123.624 10.7998C122.892 10.0298 122.043 9.46109 121.078 9.0965C120.112 8.73192 118.969 8.54817 117.651 8.54817C114.582 8.54817 112.517 9.73525 111.461 12.1123V9.03817H107.856V29.0961H111.461V18.0273C111.461 15.5073 112.004 13.7982 113.086 12.9057C114.171 12.0103 115.37 11.564 116.691 11.564C117.435 11.564 118.088 11.634 118.651 11.7711C119.211 11.9082 119.748 12.2261 120.258 12.7219C120.637 13.0865 120.914 13.5065 121.089 13.9761C121.264 14.4457 121.369 14.9182 121.401 15.3965C121.433 15.8719 121.451 16.5369 121.451 17.3857V29.099H125.193V17.1903C125.193 16.2365 125.164 15.4111 125.106 14.7111C125.047 14.0111 124.901 13.314 124.674 12.614L124.671 12.6111ZM141.337 12.0511V9.03525H135.638V3.45275H132.073V9.03525H127.862V12.0511H132.073V24.1582C132.073 25.9723 132.563 27.2819 133.543 28.0869C134.523 28.8919 136.101 29.2915 138.283 29.2915C138.831 29.2915 139.377 29.2623 139.919 29.204C140.462 29.1457 140.908 29.0698 141.261 28.9794L141.182 25.6894C140.176 25.9257 139.307 26.0423 138.578 26.0423C137.848 26.0423 137.236 25.9869 136.825 25.8761C136.413 25.7653 136.113 25.5669 135.923 25.2782C135.734 24.9894 135.641 24.5782 135.641 24.0444V12.0569H141.34L141.337 12.0511ZM78.5556 29.1223H82.1606V9.06442H78.5556V29.1223ZM80.3581 0.416504C78.9027 0.416504 77.7243 1.59484 77.7243 3.05025C77.7243 4.50567 78.9027 5.684 80.3581 5.684C81.8135 5.684 82.9918 4.50567 82.9918 3.05025C82.9918 1.59484 81.8135 0.416504 80.3581 0.416504Z" fill="#1A1414"/>
</g>
</svg>
